<svg width="126" height="59" viewBox="0 0 126 59" fill="none" xmlns="http://www.w3.org/2000/svg">
<path d="M2.6 0.499998V15.44L9.2 8H9.5L4.61 13.52L11.06 23H8.96L3.41 14.84L2.6 15.77V23H0.5V0.499998H2.6ZM17.1345 15.68C17.1345 18.16 17.5645 19.98 18.4245 21.14C19.3045 22.3 20.4545 22.88 21.8745 22.88C23.8745 22.88 25.6545 22.58 27.2145 21.98L27.3045 22.19C25.7045 22.81 23.8945 23.12 21.8745 23.12C19.8745 23.12 18.2445 22.52 16.9845 21.32C15.7245 20.12 15.0945 18.27 15.0945 15.77C15.0945 13.27 15.7545 11.33 17.0745 9.95C18.3945 8.57 20.0745 7.88 22.1145 7.88C23.7545 7.88 25.1345 8.37 26.2545 9.35C27.3745 10.33 27.9345 11.78 27.9345 13.7C27.9345 13.8 27.9345 13.9 27.9345 14H17.2245C17.1645 14.54 17.1345 15.1 17.1345 15.68ZM25.8945 13.76C25.8745 11.84 25.5045 10.42 24.7845 9.5C24.0645 8.58 23.1345 8.12 21.9945 8.12C20.8545 8.12 19.8345 8.62 18.9345 9.62C18.0545 10.62 17.4945 12 17.2545 13.76H25.8945ZM40.0852 8.12C38.6652 8.12 37.4752 8.8 36.5152 10.16C35.5752 11.52 35.1052 13.4 35.1052 15.8C35.1052 18.2 35.5352 19.98 36.3952 21.14C37.2752 22.3 38.4252 22.88 39.8452 22.88C41.6252 22.88 43.2052 22.58 44.5852 21.98L44.6752 22.19C43.2552 22.81 41.5952 23.12 39.6952 23.12C37.7952 23.12 36.2152 22.52 34.9552 21.32C33.6952 20.12 33.0652 18.27 33.0652 15.77C33.0652 13.27 33.7252 11.33 35.0452 9.95C36.3652 8.57 38.0452 7.88 40.0852 7.88C41.2252 7.88 42.2752 8.14 43.2352 8.66C44.2152 9.18 44.9352 9.97 45.3952 11.03H43.4752C43.1752 10.05 42.7152 9.32 42.0952 8.84C41.4952 8.36 40.8252 8.12 40.0852 8.12ZM62.6056 23C61.2456 23 60.3156 22.74 59.8156 22.22C59.3556 21.78 59.1256 21.4 59.1256 21.08V20.45C58.1456 22.23 56.5756 23.12 54.4156 23.12C51.8956 23.12 50.4656 21.98 50.1256 19.7C50.0856 19.46 50.0656 19.22 50.0656 18.98C50.0656 18.72 50.1056 18.44 50.1856 18.14C50.2656 17.84 50.4956 17.51 50.8756 17.15C51.6356 16.43 53.3056 15.99 55.8856 15.83C56.5256 15.77 57.1156 15.74 57.6556 15.74C58.1956 15.74 58.6856 15.76 59.1256 15.8V10.82C59.0856 10.8 59.0856 10.71 59.1256 10.55C59.1656 10.37 59.1256 10.15 59.0056 9.89C58.9056 9.61 58.7656 9.34 58.5856 9.08C58.4056 8.82 58.0856 8.6 57.6256 8.42C57.1656 8.22 56.5656 8.12 55.8256 8.12C55.0856 8.12 54.2156 8.26 53.2156 8.54C52.2356 8.8 51.5156 9.06 51.0556 9.32L50.9356 9.11C52.7156 8.29 54.5256 7.88 56.3656 7.88C58.4256 7.88 59.7856 8.25 60.4456 8.99C60.9656 9.57 61.2256 10.18 61.2256 10.82V20.87C61.2256 21.45 61.3356 21.9 61.5556 22.22C61.7956 22.52 62.0356 22.68 62.2756 22.7L62.6056 22.76H63.5356V23H62.6056ZM54.8956 22.88C55.9556 22.88 56.9056 22.52 57.7456 21.8C58.6056 21.06 59.0656 20.35 59.1256 19.67V16.04C58.5856 16 58.0356 15.98 57.4756 15.98C56.9356 15.98 56.3956 16.01 55.8556 16.07C54.3356 16.25 53.3456 16.59 52.8856 17.09C52.4256 17.59 52.1956 18.28 52.1956 19.16C52.1956 19.32 52.2056 19.5 52.2256 19.7C52.4056 21.82 53.2956 22.88 54.8956 22.88ZM70.5863 0.499998V15.44L77.1863 8H77.4863L72.5963 13.52L79.0463 23H76.9463L71.3963 14.84L70.5863 15.77V23H68.4863V0.499998H70.5863ZM2.3 54.55C2.3 56.13 2.72 57.14 3.56 57.58C3.96 57.78 4.47 57.88 5.09 57.88C6.35 57.88 7.47 57.4 8.45 56.44C9.45 55.48 9.99 54.59 10.07 53.77V43H12.17V55.87C12.17 56.45 12.28 56.9 12.5 57.22C12.74 57.52 12.98 57.68 13.22 57.7L13.55 57.76H14.48V58H12.65C11.83 58 11.2 57.82 10.76 57.46C10.34 57.1 10.12 56.74 10.1 56.38L10.07 55.87V54.58C9.71 55.44 9.07 56.25 8.15 57.01C7.23 57.75 6.22 58.12 5.12 58.12C4.04 58.12 3.15 58.02 2.45 57.82C1.77 57.6 1.28 57.3 0.98 56.92C0.46 56.3 0.2 55.5 0.2 54.52V43H2.3V54.55ZM22.801 58C21.041 58 19.931 57.54 19.471 56.62C19.371 56.42 19.321 56.24 19.321 56.08V35.53H21.421V55.87C21.421 56.45 21.531 56.9 21.751 57.22C21.991 57.52 22.231 57.68 22.471 57.7L22.801 57.76H23.731V58H22.801ZM31.093 54.55C31.093 56.13 31.513 57.14 32.353 57.58C32.753 57.78 33.263 57.88 33.883 57.88C35.143 57.88 36.263 57.4 37.243 56.44C38.243 55.48 38.783 54.59 38.863 53.77V43H40.963V55.87C40.963 56.45 41.073 56.9 41.293 57.22C41.533 57.52 41.773 57.68 42.013 57.7L42.343 57.76H43.273V58H41.443C40.623 58 39.993 57.82 39.553 57.46C39.133 57.1 38.913 56.74 38.893 56.38L38.863 55.87V54.58C38.503 55.44 37.863 56.25 36.943 57.01C36.023 57.75 35.013 58.12 33.913 58.12C32.833 58.12 31.943 58.02 31.243 57.82C30.563 57.6 30.073 57.3 29.773 56.92C29.253 56.3 28.993 55.5 28.993 54.52V43H31.093V54.55ZM68.454 43.18L68.634 43C68.714 43.04 68.814 43.16 68.934 43.36C69.074 43.56 69.154 43.74 69.174 43.9C69.214 44.06 69.234 44.21 69.234 44.35C69.234 44.89 69.114 45.44 68.874 46L63.414 58H63.114L58.794 46.39L53.514 58H53.214L47.634 43H49.734L54.324 55.42L58.644 46.03L57.534 43H59.634L64.224 55.42L68.574 46C68.814 45.58 68.934 45.08 68.934 44.5C68.934 43.92 68.774 43.48 68.454 43.18ZM86.2892 58C84.9292 58 83.9992 57.74 83.4992 57.22C83.0392 56.78 82.8092 56.4 82.8092 56.08V55.45C81.8292 57.23 80.2592 58.12 78.0992 58.12C75.5792 58.12 74.1492 56.98 73.8092 54.7C73.7692 54.46 73.7492 54.22 73.7492 53.98C73.7492 53.72 73.7892 53.44 73.8692 53.14C73.9492 52.84 74.1792 52.51 74.5592 52.15C75.3192 51.43 76.9892 50.99 79.5692 50.83C80.2092 50.77 80.7992 50.74 81.3392 50.74C81.8792 50.74 82.3692 50.76 82.8092 50.8V45.82C82.7692 45.8 82.7692 45.71 82.8092 45.55C82.8492 45.37 82.8092 45.15 82.6892 44.89C82.5892 44.61 82.4492 44.34 82.2692 44.08C82.0892 43.82 81.7692 43.6 81.3092 43.42C80.8492 43.22 80.2492 43.12 79.5092 43.12C78.7692 43.12 77.8992 43.26 76.8992 43.54C75.9192 43.8 75.1992 44.06 74.7392 44.32L74.6192 44.11C76.3992 43.29 78.2092 42.88 80.0492 42.88C82.1092 42.88 83.4692 43.25 84.1292 43.99C84.6492 44.57 84.9092 45.18 84.9092 45.82V55.87C84.9092 56.45 85.0192 56.9 85.2392 57.22C85.4792 57.52 85.7192 57.68 85.9592 57.7L86.2892 57.76H87.2192V58H86.2892ZM78.5792 57.88C79.6392 57.88 80.5892 57.52 81.4292 56.8C82.2892 56.06 82.7492 55.35 82.8092 54.67V51.04C82.2692 51 81.7192 50.98 81.1592 50.98C80.6192 50.98 80.0792 51.01 79.5392 51.07C78.0192 51.25 77.0292 51.59 76.5692 52.09C76.1092 52.59 75.8792 53.28 75.8792 54.16C75.8792 54.32 75.8892 54.5 75.9092 54.7C76.0892 56.82 76.9792 57.88 78.5792 57.88ZM92.3059 43.24V43H92.9359V40H95.0359V43H99.6259V43.24H95.0359V54.16C95.0359 55.46 95.1759 56.4 95.4559 56.98C95.7559 57.56 96.3659 57.85 97.2859 57.85C98.2259 57.85 99.1759 57.66 100.136 57.28L100.226 57.52C99.2259 57.9 98.0759 58.09 96.7759 58.09C95.4959 58.09 94.5359 57.83 93.8959 57.31C93.2559 56.77 92.9359 55.71 92.9359 54.13V43.24H92.3059ZM107.575 54.55C107.575 56.13 107.995 57.14 108.835 57.58C109.235 57.78 109.745 57.88 110.365 57.88C111.625 57.88 112.745 57.4 113.725 56.44C114.725 55.48 115.265 54.59 115.345 53.77V43H117.445V55.87C117.445 56.45 117.555 56.9 117.775 57.22C118.015 57.52 118.255 57.68 118.495 57.7L118.825 57.76H119.755V58H117.925C117.105 58 116.475 57.82 116.035 57.46C115.615 57.1 115.395 56.74 115.375 56.38L115.345 55.87V54.58C114.985 55.44 114.345 56.25 113.425 57.01C112.505 57.75 111.495 58.12 110.395 58.12C109.315 58.12 108.425 58.02 107.725 57.82C107.045 57.6 106.555 57.3 106.255 56.92C105.735 56.3 105.475 55.5 105.475 54.52V43H107.575V54.55ZM124.866 58.12C124.606 58.12 124.376 58.03 124.176 57.85C123.996 57.65 123.906 57.42 123.906 57.16C123.906 56.88 123.996 56.65 124.176 56.47C124.356 56.29 124.576 56.2 124.836 56.2C125.116 56.2 125.346 56.3 125.526 56.5C125.726 56.68 125.826 56.9 125.826 57.16C125.826 57.42 125.726 57.65 125.526 57.85C125.346 58.03 125.126 58.12 124.866 58.12Z" fill="white"/>
</svg>
