<svg width="500" height="546" viewBox="0 0 500 546" fill="none" xmlns="http://www.w3.org/2000/svg">
<path d="M495.641 394.834C492.294 386.7 486.4 380.564 480.137 374.464C464.95 359.672 446.391 355.757 426.261 356.502C412.837 357.001 399.832 360.135 386.973 363.887C382.464 365.202 377.888 366.29 373.343 367.48C375.54 365.547 378.003 364.383 380.526 363.355C390.898 359.128 400.347 353.431 408.115 345.309C410.36 342.961 412.228 340.007 413.465 337C415.175 332.841 412.7 329.395 408.179 329.721C404.945 329.954 401.627 331.02 398.651 332.383C394.834 334.132 391.274 336.471 387.695 338.701C378.432 344.468 369.11 350.074 358.913 354.121C345.745 359.346 332.266 362.032 318.164 359.272C306.776 357.042 296.694 352.525 290.462 341.907C289.221 339.791 287.542 337.937 286.183 335.886C283.313 331.554 280.52 327.17 277.338 322.256C279.178 322.124 280.175 322.033 281.171 321.987C294.387 321.381 307.523 322.445 320.691 323.444C330.483 324.187 340.433 324.573 350.185 323.688C367.54 322.114 383.799 316.458 398.948 307.739C413.81 299.186 426.493 288.28 435.833 273.758C437.064 271.844 438.269 269.812 438.923 267.663C439.383 266.151 439.494 263.832 438.641 262.823C437.824 261.858 435.444 261.614 433.954 261.951C431.417 262.526 429.016 263.743 426.601 264.795C416.769 269.084 406.955 273.432 396.233 275.074C394.31 275.368 392.34 275.366 389.575 275.558C390.634 274.319 390.888 273.833 391.291 273.583C392.486 272.848 393.718 272.17 394.971 271.537C407.559 265.193 419.823 258.331 430.696 249.239C446.034 236.411 453.174 219.477 455.237 200.044C455.453 198.012 455.752 195.549 453.45 194.397C451.018 193.182 449.508 195.255 448.056 196.673C442.131 202.464 436.058 208.058 428.916 212.349C427.641 213.114 426.273 213.722 424.948 214.4C424.836 212.915 425.202 212.007 425.76 211.235C435.77 197.438 441.468 181.936 444.53 165.258C447.11 151.214 447.067 137.279 444.144 123.347C443.646 120.968 442.764 118.599 441.647 116.435C440.186 113.603 438.2 113.565 436.547 116.231C435.538 117.861 434.776 119.677 434.124 121.488C430.224 132.353 425.101 142.49 416.943 150.483C417.221 153.07 417.976 155.404 417.598 157.536C416.807 162.007 415.813 166.519 414.212 170.752C405.963 192.581 390.603 209.237 374.16 225.06C373.822 225.385 373.173 225.39 372.672 225.544C381.053 215.522 389.47 205.825 397.467 195.796C405.453 185.784 410.685 174.253 414.548 162.096C415.413 159.369 416.124 156.566 414.725 152.903C400.608 171.327 385.639 187.859 368.518 202.351C369.028 201.029 369.893 200.032 370.806 199.081C379.817 189.692 388.861 180.331 397.841 170.91C400.764 167.846 403.383 164.547 404.614 160.361C409.377 144.191 410.527 127.919 406.011 111.49C405.688 110.309 405.062 109.212 404.576 108.073C403.033 112.381 402.379 116.514 402.01 120.673C400.565 136.891 395.531 151.932 387.275 165.91C386.631 167.003 386.293 168.886 384.158 168.72C384.249 168.222 384.24 168.026 384.321 167.879C384.743 167.108 385.205 166.36 385.617 165.587C393.188 151.336 398.924 136.52 399.957 120.185C400.189 116.517 400.798 112.846 401.581 109.252C401.873 107.911 402.973 105.991 404.046 105.728C406.205 105.201 406.907 107.395 407.283 109.065C408.436 114.188 409.952 119.312 410.328 124.509C411.119 135.42 410.63 146.309 407.195 156.863C407.046 157.318 407.175 157.865 407.175 159.043C409.423 156.343 411.081 153.847 413.247 151.923C414.802 150.54 415.674 149.113 416.107 147.169C418.779 135.171 419.131 123.112 416.919 111.028C414.03 95.2651 409.682 79.8835 404.502 64.7248C401.43 55.7378 398.311 46.7293 397.556 37.1817C396.677 26.0528 398.893 15.4894 404.022 5.53927C404.851 3.92924 406.394 2.28088 404.444 0C403.44 0.361778 402.122 0.49836 401.27 1.20035C395.575 5.87712 389.721 10.4029 384.41 15.4918C376.019 23.53 372.579 34.2036 370.205 46.3483C365.473 36.6618 368.029 27.8761 369.253 19.0042C365.183 19.1311 363.99 22.0205 362.492 24.184C356.44 32.9146 354.636 42.8671 354.837 53.2532C355.075 65.5585 358.709 77.1114 362.78 88.5925C365.595 96.5349 368.19 104.571 370.463 112.683C373.64 124.03 372.438 134.982 366.309 145.205C365.779 146.089 364.886 146.757 363.575 148.147C363.575 145.411 363.899 143.585 363.508 141.93C362.672 138.381 361.752 134.792 360.259 131.493C359.711 130.281 357.353 129.081 356.009 129.263C354.679 129.442 353.1 131.167 352.494 132.583C351.399 135.14 351.081 138.017 350.204 140.681C347.683 148.346 345.642 156.243 342.343 163.565C331.858 186.833 315.243 205.361 295.693 221.353C288.294 227.405 279.949 231.967 270.423 233.934C265.691 234.911 260.952 234.911 256.343 233.397C250.432 231.457 247.974 226.298 250.003 220.395C251.826 215.095 254.685 210.437 259.563 207.519C263.307 205.279 267.443 203.703 271.305 201.647C275.622 199.352 279.942 197.023 284.025 194.347C285.608 193.307 286.545 191.278 288.383 188.92C283.917 189.294 280.611 189.569 277.304 189.845C281.65 185.226 287.027 188.443 292.509 187.478C291.402 186.126 290.858 185.262 290.129 184.6C284.818 179.797 278.313 178.39 271.482 178.826C263.406 179.341 255.468 180.764 247.782 183.582C239.984 186.44 231.859 181.301 230.573 173.043C230.328 171.483 230.177 169.89 229.739 168.383C228.958 165.697 227.13 165.194 225.103 167.168C222.489 169.715 221.667 172.856 222.843 176.359C223.505 178.328 224.372 180.225 225.376 182.732C223.244 182.425 221.531 182.274 219.858 181.919C213.418 180.554 207.5 177.937 201.975 174.375C198.281 171.993 194.582 169.607 190.784 167.398C189.059 166.394 186.73 164.367 185.187 166.456C184.102 167.93 184.533 170.702 184.718 172.858C184.811 173.967 185.643 175.201 186.486 176.028C189.481 178.963 192.286 182.281 195.782 184.469C201.724 188.187 208.137 191.153 214.35 194.438C215.795 195.202 217.237 195.974 218.991 196.908C215.203 200.749 210.878 202.282 206.662 203.916C201.748 205.818 196.678 207.33 191.788 209.287C189.121 210.356 186.074 211.283 185.185 214.695C186.608 217.259 188.978 217.326 191.22 217.084C193.65 216.823 196.041 216.147 198.432 215.579C205.301 213.945 211.667 211.123 217.498 206.939C217.707 207.656 217.946 208.018 217.874 208.303C214.427 222.177 207.713 234.097 196.489 243.158C194.517 244.751 191.972 246.352 189.574 246.555C184.011 247.025 178.263 247.344 172.791 246.467C159.784 244.382 150.085 236.68 142.071 226.598C135.66 218.531 131.361 209.283 127.078 200.018C126.268 198.266 125.559 196.371 124.346 194.929C123.328 193.719 121.653 192.42 120.245 192.392C119.231 192.373 117.693 194.208 117.243 195.511C116.397 197.965 115.63 200.662 115.788 203.2C116.174 209.314 117.113 215.392 117.83 221.485C120.511 221.118 122.015 222.949 123.577 224.612C126.706 227.944 129.763 231.344 132.909 234.662C145.442 247.888 160.86 256.958 176.886 265.15C177.657 265.543 178.419 265.955 178.989 266.731C166.89 263.492 156.662 256.558 146.559 249.581C136.261 242.473 127.854 233.213 119.653 223.303C117.667 225.508 117.87 227.46 118.201 229.533C120.118 241.567 125.578 251.941 133.906 260.578C139.613 266.496 146.228 271.54 152.472 276.933C153.787 278.068 155.253 279.027 156.403 280.678C155.603 280.44 154.705 280.359 154.017 279.937C152.222 278.833 150.509 277.596 148.784 276.384C119.904 256.084 97.6682 229.94 80.7604 199.098C79.366 196.556 77.6553 194.189 75.523 190.846C74.3658 196.156 75.281 200.221 76.1028 204.239C79.5769 221.245 87.5503 236.239 97.0141 250.549C97.9413 251.953 98.8421 253.374 99.1416 255.329C98.7176 254.972 98.2072 254.678 97.8838 254.246C86.0721 238.407 77.1618 221.226 73.8195 201.53C73.3811 198.944 73.2086 196.285 73.223 193.662C73.2302 192.222 73.8843 190.784 74.5575 188.108C76.6156 190.243 78.0986 191.364 79.0426 192.833C83.0318 199.045 86.9658 205.296 90.7225 211.65C99.3621 226.265 109.875 239.413 121.644 251.596C123.038 253.039 124.617 254.304 126.651 256.141C123.656 249.613 120.75 244.054 118.567 238.225C117.238 234.677 116.835 230.733 116.404 226.926C116.22 225.294 117.02 223.55 117.374 221.856C106.387 214.297 99.6113 203.542 94.5224 191.551C88.571 177.53 85.7942 162.64 82.8018 147.824C79.3541 130.741 75.4703 113.785 68.6852 97.6489C56.181 67.9113 36.9805 44.6593 5.87477 32.9913C4.20723 32.366 2.46062 31.9491 0.749956 31.4364C0.500784 31.7982 0.249172 32.1575 0 32.5193C0.699598 33.5975 1.22914 34.8529 2.12521 35.7298C11.6249 45.0234 17.9356 56.332 22.828 68.5054C30.8135 88.3769 34.6493 109.331 38.4396 130.259C42.0813 150.375 46.7173 170.182 54.456 189.169C55.0742 190.688 55.4815 192.293 55.9894 193.858C55.6564 194.057 55.3234 194.258 54.9904 194.457C53.3252 192.744 51.4324 191.199 50.0452 189.284C46.9545 185.017 44.0363 180.616 41.1972 176.176C36.3647 168.622 31.7047 160.955 26.8123 153.439C26.0552 152.277 24.4428 151.671 23.2257 150.809C22.4542 152.256 21.5989 153.665 20.9496 155.165C20.6933 155.759 20.8538 156.554 20.8898 157.254C21.6493 172.35 26.0624 186.237 34.5438 198.81C39.8771 206.719 45.977 213.959 52.767 220.656C54.7651 222.625 57.2113 224.367 57.8725 227.597C55.1604 226.718 52.4339 225.812 50.4094 224.082C44.5371 219.065 38.9067 213.761 33.2644 208.48C30.6961 206.079 28.4176 203.365 25.8013 201.022C24.8789 200.195 22.7178 199.323 22.229 199.747C21.2371 200.607 20.6526 202.313 20.5495 203.717C20.4393 205.234 20.952 206.841 21.4049 208.346C26.9705 226.801 37.1554 242.468 51.0036 255.662C58.7615 263.054 67.25 269.671 75.3769 276.676C77.4733 278.483 79.7589 280.208 80.5208 283.859C78.6113 284.346 76.8623 285.136 75.1013 285.163C71.9508 285.211 68.7451 285.057 65.6472 284.516C60.8076 283.668 56.0517 282.348 51.2288 281.375C47.6925 280.663 45.6224 282.369 46.0704 285.915C46.3723 288.299 47.1582 290.771 48.3321 292.865C54.5998 304.057 60.7812 315.312 67.5519 326.199C71.922 333.229 77.7847 339.154 84.3638 344.288C94.9201 352.528 107.216 356.452 120.137 358.91C123.021 359.459 125.858 360.262 130.034 361.263C126.73 363.003 124.677 364.263 122.485 365.2C118.282 366.994 113.975 368.542 109.767 370.322C108.004 371.067 106.229 371.946 104.719 373.106C100.673 376.216 101.176 379.97 106.011 381.815C108.943 382.936 112.087 383.636 115.199 384.127C132.205 386.803 148.986 385.572 165.096 379.539C175.934 375.48 186.347 370.291 196.958 365.624C198.127 365.108 199.342 364.696 201.515 363.86C196.259 370.605 191.62 376.338 187.241 382.261C184.847 385.497 182.636 388.928 180.82 392.513C179.272 395.567 180.647 397.585 184.04 397.992C185.247 398.136 186.534 398.162 187.717 397.913C196.081 396.157 204.024 393.181 210.723 387.838C219.976 380.457 228.105 371.862 234.751 362.059C237.988 357.284 241.898 355.266 247.559 355.645C260.974 356.538 272.752 361.702 283.692 369.1C298.033 378.799 309.498 391.408 319.271 405.515C329.582 420.398 336.391 436.508 335.486 455.23C334.554 474.533 326.492 489.206 309.325 498.653C299.854 503.864 289.732 507.275 279.437 510.313C272.527 512.355 265.572 514.288 258.789 516.696C255.892 517.726 253.046 519.475 250.772 521.552C246.198 525.736 247.289 530.829 253.24 532.173C257.416 533.115 261.985 533.096 266.276 532.609C278.629 531.21 290.194 527.008 301.373 521.696C315.442 515.012 326.367 504.908 334.365 491.558C340.788 480.839 344.399 469.207 346.397 456.923C349.037 440.691 347.149 425.008 341.066 409.864C338.732 404.051 335.481 398.605 332.637 392.965C332.925 392.925 333.471 392.678 333.905 392.807C340.304 394.717 346.773 396.439 353.052 398.689C358.74 400.726 363.594 404.181 367.725 408.706C373.132 414.634 376.949 421.51 380.485 428.616C386.135 439.965 389.319 452.062 389.923 464.598C390.419 474.926 389.863 485.348 389.099 495.679C388.282 506.753 383.617 516.025 373.75 521.938C370.447 523.919 366.781 525.285 363.384 527.123C360.151 528.872 356.747 530.506 353.968 532.844C349.856 536.304 350.522 540.993 355.194 543.654C358.314 545.432 361.663 546.211 365.341 545.365C379.072 542.207 389.226 534.088 395.742 521.967C409.396 496.57 410.951 470.417 398.974 443.842C389.571 422.979 375.226 406.186 356.828 392.731C355.928 392.072 355.206 391.166 354.351 390.325C361.613 388.095 368.508 386.07 375.339 383.854C389.209 379.352 402.92 374.309 416.931 370.305C431.096 366.258 445.663 364.771 460.187 368.551C464.866 369.768 469.885 371.434 473.587 374.364C489.793 387.187 498.684 414.559 476.575 435.193C469.768 441.547 461.924 446.039 453.112 448.964C448.279 450.57 443.451 452.228 438.736 454.142C435.595 455.416 432.926 457.537 431.491 460.75C428.662 467.082 433.051 474.397 440.682 476.201C447.122 477.722 453.323 476.63 459.219 474.035C475.899 466.696 487.823 454.468 495.183 437.888C501.492 423.673 501.561 409.217 495.641 394.834ZM304.162 288.445C312.445 288.572 320.686 288.28 328.715 285.977C331.904 285.062 335.038 283.958 337.963 280.79C328.943 276.748 319.517 275.526 310.976 271.746C321.317 273.253 331.722 274.511 341.432 280.795C348.709 278.059 357.205 276.401 364.22 269.999C358.139 266.456 351.751 266.326 345.275 264.719C352.176 262.852 362.068 265.442 365.847 270.002C362.392 276.502 354.845 277.103 348.606 281.09C353.618 281.77 357.748 282.134 361.785 282.949C364.569 283.509 368.499 283.565 368.729 287.288C368.925 290.458 365.523 291.586 362.974 292.693C357.54 295.058 351.991 297.085 345.994 297.446C352.858 293.855 361.055 293.27 367.485 287.537C364.114 284.784 360.719 284.676 357.509 284.262C353.51 283.747 349.478 283.45 345.448 283.248C341.813 283.066 338.464 283.203 335.019 285.491C329.515 289.149 322.809 289.698 316.331 290.292C311.148 290.767 305.94 290.891 300.791 290.101C300.741 289.712 300.688 289.324 300.638 288.936C301.812 288.764 302.991 288.426 304.162 288.445ZM267.397 184.679C265.004 187.598 263.413 190.084 260.603 190.751C258.022 191.364 255.25 191.165 252.224 191.342C255.741 186.009 261.245 185.966 267.397 184.679ZM156.188 336.758C156.161 337.249 156.137 337.74 156.111 338.229C152.675 337.771 149.208 337.477 145.809 336.832C123.915 332.675 105.019 322.898 89.6995 306.553C88.2692 305.027 86.8843 303.355 85.9331 301.515C84.8119 299.349 86.0002 297.518 88.444 297.72C91.4005 297.964 94.3355 298.651 97.2345 299.337C102.503 300.58 107.736 301.963 112.985 303.288C113.182 302.94 113.378 302.593 113.574 302.248C112.297 301.285 111.035 300.3 109.743 299.361C102.735 294.262 96.1492 288.735 91.343 281.389C90.4781 280.069 89.5342 278.737 89.0238 277.273C88.674 276.269 88.571 274.573 89.1532 274.007C89.8168 273.365 91.4605 273.301 92.5075 273.593C94.175 274.055 95.7563 274.93 97.2848 275.788C108.922 282.324 120.93 287.963 133.92 291.684C131.534 291.392 129.097 291.32 126.771 290.771C116.763 288.416 107.575 283.974 98.4588 279.374C96.3217 278.296 94.1845 277.223 92.045 276.149C91.7599 276.451 91.4772 276.756 91.1921 277.057C92.783 279.434 94.1822 281.969 96.003 284.156C102.604 292.087 110.524 298.635 119.552 303.438C123.354 305.463 128.352 305.523 132.854 305.892C141.611 306.613 150.399 306.92 159.175 307.411C159.614 307.435 160.043 307.603 160.546 308.515C158.569 308.755 156.59 309.213 154.616 309.198C136.089 309.05 117.755 307.284 99.8101 302.387C96.1372 301.385 92.3948 300.635 88.4536 300.357C105.941 321.937 129.128 332.893 156.188 336.758ZM217.366 254.788C214.374 255.653 211.286 256.381 208.195 256.64C205.852 256.836 203.674 255.911 203.307 253.008C203.317 253 203.324 252.996 203.334 252.988L203.327 252.986C205.814 250.312 208.317 247.658 210.778 244.96C212.05 243.563 213.538 242.348 212.769 239.94C212.476 239.025 213.162 237.566 213.801 236.625C216.336 232.887 219.029 229.26 221.782 225.426C221.495 231.246 216.914 234.562 214.23 238.893C217.525 240.676 219.434 240.106 228.73 234.497C228.031 238.028 223.598 238.534 223.706 242.161C223.79 244.977 221.466 247.722 223.234 250.904C227.048 250.866 229.264 247.787 232.386 246.52C230.68 249.982 227.822 252.55 224.207 252.785C221.576 252.952 219.638 254.131 217.366 254.788ZM261.144 337.496C260.974 340.052 259.345 341.365 256.829 340.294C253.645 338.941 250.712 336.99 247.454 335.177C246.093 337.673 243.937 337.419 241.481 336.176C235.525 333.164 229.945 325.876 228.153 317.912C233.021 324.803 236.677 331.729 245.164 335.33C244.181 329.925 244.574 325.188 240.329 321.561C236.749 318.501 234.392 314.438 232.738 309.991C237.221 313.094 238.834 319.23 245.104 321.154C246.4 314.373 243.474 308.477 242.966 302.267C245.736 304.878 248.448 312.802 248.513 317.886C248.549 320.768 247.571 323.015 245.003 324.491C245.386 333.138 251.853 335.852 259.282 339.463C258.777 336.296 258.549 334.158 258.073 332.079C257.613 330.066 256.894 328.111 256.177 325.763C259.04 328.799 261.345 334.444 261.144 337.496ZM354.164 375.257C347.362 378.82 338.181 380.706 331.542 379.668C340.74 377.534 349.576 376.788 357.334 371.098C352.782 368.901 348.419 369.661 344.221 369.481C339.947 369.299 335.661 369.44 331.391 369.078C337.424 366.249 354.969 367.351 359.31 370.59C358.664 373.269 356.265 374.158 354.164 375.257Z" fill="#1F1F1F" fill-opacity="0.5"/>
<path d="M218.382 251.726C219.056 251.247 219.947 250.652 220.112 249.962C220.814 247.037 221.279 244.054 221.871 240.887C215.459 242.504 215.562 242.612 211.015 246.977C208.681 249.217 205.909 251.002 203.334 252.988C208.626 255.792 213.626 255.111 218.382 251.726Z" fill="#1F1F1F" fill-opacity="0.5"/>
</svg>
