<svg width="548" height="481" viewBox="0 0 548 481" fill="none" xmlns="http://www.w3.org/2000/svg">
<path d="M537.773 141.894C537.523 139.566 534.998 140.206 533.175 140.14C522.866 139.766 512.538 139.635 502.257 138.862C482.939 137.406 464.093 133.372 445.663 127.42C444.792 127.139 444.014 126.562 442.653 125.834C444.404 125.035 445.587 124.462 446.796 123.951C457.7 119.337 468.761 115.061 479.474 110.036C490.605 104.815 500.534 97.7422 508.056 87.7834C510.086 85.096 511.826 82.1679 513.468 79.2209C513.956 78.3417 514.091 76.3629 513.614 76.0432C512.674 75.4142 511.037 75.1546 509.972 75.5351C508.095 76.2055 506.387 77.4034 504.685 78.4984C497.569 83.0771 490.594 87.8848 483.364 92.2716C462.361 105.018 439.5 111.673 414.946 111.996C402.945 112.153 390.931 111.324 378.924 111.343C373.39 111.35 367.716 111.721 362.356 112.988C352.217 115.387 344.918 122.36 338.169 129.851C334.772 133.623 331.652 137.643 328.263 141.42C320.705 149.841 312.109 156.879 301.214 160.561C294.839 162.716 288.318 163.622 281.858 160.897C277.931 159.239 275.341 156.635 274.938 151.885C274.255 143.858 274.664 136.1 277.161 128.349C279.934 119.739 281.378 110.881 278.78 101.889C276.837 95.164 273 90.121 265.994 88.0019C265.462 87.842 265.05 87.2892 264.387 86.7641C268.391 83.909 272.131 81.3076 275.8 78.6096C286.495 70.7431 292.432 60.1055 293.815 46.9697C294.112 44.1504 294.244 41.1083 293.493 38.4396C292.65 35.4398 290.941 32.5905 289.143 29.9982C288.509 29.0849 286.443 28.6871 285.124 28.8449C283.237 29.0681 283.193 30.9478 283.229 32.4881C283.258 33.6673 283.499 34.8387 283.641 36.0137C285.713 53.2177 275.258 72.1312 259.046 79.9712C259.66 78.2944 260.163 76.9125 260.668 75.5309C261.884 72.1962 263.359 68.9293 264.261 65.5109C266.064 58.6741 266.441 51.7681 263.315 45.1661C262.762 43.9992 261.27 42.6763 260.085 42.5445C258.023 42.3161 258.17 44.4421 257.918 45.8749C257.771 46.7037 257.742 47.5605 257.733 48.4062C257.547 64.2992 251.149 77.8732 242.331 90.6592C238.503 96.2114 234.406 101.834 231.956 108.026C226.03 123.016 229.805 133.434 238.662 141.348C239.435 142.037 240.501 142.4 241.433 142.913C238.207 136.761 236.827 130.81 239.825 124.426C239.625 129.116 239.08 133.846 242.099 138.495C242.374 131.824 243.702 126.089 250.179 123.114C253.374 132.092 249.57 143.21 241.222 149.218C236.745 145.709 231.432 145.167 225.906 145.412C224.394 145.479 222.862 145.331 221.35 145.173C212.591 144.246 206.463 140.041 204.068 131.211C203.803 130.233 203.375 129.302 203.096 128.326C199.369 115.389 190.433 107.024 178.903 101.071C175.161 99.1384 171.207 97.5336 167.22 96.1657C149.533 90.1001 137.642 77.6068 128.984 61.6571C125.926 56.0229 123.616 49.9828 120.927 44.1462C120.172 42.5062 119.601 40.4948 116.859 41.2053C114.963 44.2225 115.109 47.6253 115.536 50.9501C116.301 56.9153 118.525 62.3728 121.884 67.3751C122.636 68.4944 123.184 69.7509 123.826 70.9444C118.001 70.4387 112.875 69.3791 107.897 67.8378C92.4751 63.066 77.5541 57.1823 64.6628 47.1134C60.9286 44.1978 57.2587 41.2001 53.5378 38.2681C51.858 36.9448 50.306 35.2228 47.0441 36.1285C47.6238 37.882 47.9373 39.6209 48.7326 41.1036C54.7437 52.2916 62.6613 62.002 72.8416 69.5535C80.289 75.078 88.3759 79.742 96.1624 84.8149C97.8911 85.9416 100.233 86.4566 100.881 89.4526C97.484 89.8441 94.3216 90.3611 91.1443 90.5408C83.1795 90.9907 75.8406 88.1595 68.3809 85.9824C66.3589 85.3918 64.332 84.1993 61.544 85.9041C62.2777 87.082 62.7119 88.3515 63.5916 89.0923C67.0779 92.027 70.5035 95.1074 74.3152 97.5753C89.0419 107.113 104.928 114.126 121.848 118.819C123.8 119.36 126.101 119.512 127.611 121.425C116.441 127.623 105.258 133.242 94.6966 139.857C84.0984 146.495 75.924 155.86 67.9143 166.691C69.6918 166.576 70.4872 166.775 70.8835 166.463C77.2041 161.539 84.7692 159.538 92.2492 157.423C105.175 153.767 117.691 149.214 128.96 141.711C129.642 141.256 130.482 141.037 131.248 140.708C129.348 144.058 127.173 146.876 124.653 149.337C115.726 158.044 108.788 168.23 102.435 178.855C101.635 180.194 101.194 181.748 100.109 184.351C107.629 182.808 112.947 179.171 118.789 176.974C124.647 174.77 130.446 172.385 136.146 169.803C141.867 167.211 147.432 164.275 153.066 161.492C152.307 164.133 150.99 166.036 149.548 167.839C144.794 173.786 139.786 179.54 135.256 185.651C124.61 200.014 120.359 216.959 116.35 233.957C116.158 234.774 116.683 235.762 116.946 237.012C125.176 231.323 133.143 226.044 140.858 220.42C148.585 214.79 156.061 208.817 164.244 202.536C163.335 205.23 162.719 207.312 161.937 209.329C157.27 221.372 153.964 233.765 152.296 246.58C152.142 247.759 152.355 248.983 152.434 251.275C166.744 239.904 181.104 230.411 190.72 214.532C191.815 220.673 189.411 226.005 192.621 231.39C194.324 230.156 195.91 229.441 196.865 228.229C199.476 224.919 201.998 221.511 204.225 217.935C206.41 214.429 208.19 210.668 210.786 205.829C211.32 207.314 211.517 207.962 211.781 208.582C214.763 215.59 217.875 222.546 220.712 229.61C224.764 239.695 225.697 250.277 225.129 261.025C225.042 262.667 224.698 264.46 223.914 265.875C219.987 272.969 216.449 280.377 211.719 286.913C196.55 307.871 177 323.821 153.762 335.136C144.102 339.839 133.881 342.911 122.968 342.681C112.529 342.462 103.55 339.126 98.4585 329.307C93.1994 319.166 94.5277 309.339 101.038 300.135C102.599 297.93 104.422 295.911 106.089 293.778C109.212 289.781 112.582 285.94 115.345 281.705C118.832 276.366 121.01 270.494 119.419 263.918C118.474 260.019 116.157 257.227 112.158 256.2C107.868 255.097 103.863 257.556 104.235 261.331C104.886 267.917 102.675 273.686 99.7347 279.257C96.577 285.238 93.1825 291.094 89.8241 296.967C85.9837 303.684 83.5396 310.787 83.2098 318.591C82.7927 328.462 85.8457 336.981 93.1251 343.708C102.783 352.634 114.312 356.798 127.46 356.23C142.858 355.564 156.347 349.653 168.656 340.769C189.515 325.709 207.721 307.903 223.435 287.536C225.334 285.073 227.311 282.672 229.251 280.244C227.964 293.97 226.734 307.532 219.548 319.359C211.805 332.103 201.753 342.344 186.812 346.644C183.901 347.48 181.056 348.689 178.346 350.05C172.814 352.83 168.938 357.142 167.13 363.168C165.128 369.85 167.131 377.949 171.701 381.339C173.193 382.445 174.827 383.722 176.753 382.34C178.838 380.846 177.661 379.039 176.934 377.348C176.734 376.885 176.464 376.446 176.199 376.015C170.878 367.299 174.962 360.004 182.14 356.646C186.582 354.57 191.132 352.724 195.644 350.796C211.941 343.833 223.845 332.449 230.76 316.008C231.161 315.055 231.857 314.226 232.853 312.648C234.995 339.536 226.843 362.897 214.529 385.658C217.207 388.496 219.813 391.262 222.645 394.262C230.62 383.864 236.144 372.883 240.786 361.429C247.884 343.92 250.188 325.499 251.011 306.806C251.258 301.177 251.497 295.544 251.738 289.914C255.649 304.615 258.337 319.556 265.84 333.189C271.281 327.432 272.893 319.096 269.849 312.754C265.705 304.122 263.226 295.014 261.826 285.597C261.387 282.649 261.374 279.636 261.168 276.654C262.706 279.293 263.512 282.009 264.367 284.711C267.426 294.374 271.015 303.882 272.571 313.976C273.948 322.903 272.298 330.797 265.209 336.974C263.295 338.64 261.238 340.153 259.412 341.908C257.967 343.298 256.447 344.782 255.539 346.525C253.39 350.652 256.056 354.955 260.709 355.211C263.731 355.377 266.32 354.355 268.63 352.395C276.986 345.311 281.81 335.994 283.998 325.606C286.558 313.452 283.445 301.677 278.807 290.461C275.841 283.289 272 276.477 268.521 269.519C264.487 261.454 265.666 253.079 267.019 244.699C267.086 244.279 267.538 243.92 267.893 243.416C268.236 243.938 268.612 244.309 268.76 244.757C274.35 261.681 283.78 276.46 293.91 290.951C300.198 299.943 306.067 309.316 311.194 319.011C316.511 329.066 319.68 339.935 319.78 351.561C319.996 376.782 297.538 398.298 281.18 404.319C267.318 409.42 253.34 409.465 239.373 404.892C226.945 400.824 216.521 394.046 209.837 382.343C207.407 378.086 204.721 373.968 202.012 369.879C200.053 366.924 198.123 363.877 195.713 361.308C191.714 357.045 187.261 358.154 185.096 363.588C183.063 368.696 184.12 373.648 186.113 378.381C190.808 389.533 199.038 397.586 208.994 404.194C225.352 415.049 243.277 420.285 262.822 418.884C281.643 417.535 298.789 410.812 314.197 400.089C329.615 389.359 339.479 375.226 338.543 355.46C338.272 349.744 338.087 343.936 336.919 338.367C334.057 324.739 327.131 312.824 319.718 301.275C311.309 288.175 302.642 275.233 293.814 262.411C285.482 250.314 279.785 236.949 274.29 223.469C273.175 220.735 272.529 217.766 273.643 213.536C275.279 216.406 276.311 218.474 277.581 220.384C281.32 226.01 285.071 231.628 288.995 237.125C290.254 238.89 291.928 240.442 293.671 241.744C294.591 242.431 296.171 242.767 297.251 242.487C297.825 242.339 298.177 240.556 298.271 239.482C298.414 237.84 298.247 236.169 298.212 234.509C299.412 235.062 299.816 235.607 300.007 236.22C303.736 248.202 310.492 258.529 317.691 268.611C318.669 269.981 319.752 271.323 320.997 272.442C322.632 273.913 324.144 273.443 324.84 271.374C325.102 270.593 325.158 269.717 325.177 268.881C325.328 262.625 325.661 256.36 325.512 250.11C325.374 244.425 324.702 238.75 324.264 233.073C325.783 234.563 326.74 236.305 327.7 238.046C332.342 246.465 338.373 253.692 346.145 259.393C347.35 260.278 348.712 261.091 350.128 261.517C353.022 262.391 354.711 260.981 354.554 257.897C354.469 256.22 354.038 254.559 353.758 252.894C352.708 246.61 351.655 240.328 350.605 234.044C352.352 234.875 353.229 236.059 354.178 237.185C357.999 241.704 361.752 246.286 365.756 250.637C366.608 251.564 368.615 252.29 369.715 251.937C371.633 251.323 370.785 249.402 370.342 247.989C368.315 241.533 366.236 235.096 364.181 228.65C363.743 227.279 363.332 225.897 362.908 224.521C366.356 226.674 368.958 229.453 371.881 231.839C378.034 236.862 384.282 241.778 390.654 246.522C392.583 247.959 394.839 249.632 398.313 247.732C397.447 242.221 394.081 237.395 392.504 232.004C390.939 226.648 389.455 221.268 388.016 215.877C386.543 210.359 385.169 204.814 383.752 199.282C384.042 199.106 384.331 198.93 384.621 198.752C385.354 199.884 386.037 201.054 386.824 202.146C394.94 213.41 405.018 222.602 416.603 230.177C418.528 231.434 420.413 233.174 423.281 231.77C424.006 226.944 419.976 222.9 420.46 217.692C425.226 223.543 429.512 229.204 434.216 234.495C443.186 244.589 453.579 252.897 466.022 258.402C468.284 259.402 470.962 261.015 472.956 258.408C474.651 256.193 472.46 254.262 471.229 252.591C462.723 241.049 456.9 228.13 451.254 215.052C447.038 205.289 442.34 195.702 437.279 186.349C434.672 181.531 430.811 177.395 427.517 172.95C427.801 172.859 428.138 172.621 428.358 172.702C438.817 176.52 449.791 177.532 460.747 178.454C465.437 178.85 470.198 178.572 474.918 178.376C476.894 178.295 479.007 177.849 479.494 174.603C477.836 173.762 476.146 172.777 474.358 172.024C465.643 168.351 456.895 164.759 448.184 161.074C447.235 160.674 446.455 159.871 445.596 159.257C448.049 158.812 450.173 159.102 452.254 159.579C460.409 161.452 468.696 161.755 476.993 161.513C490.622 161.114 503.871 158.383 516.696 153.866C522.889 151.685 528.887 148.894 534.805 146.036C536.202 145.367 537.913 143.194 537.773 141.894ZM244.181 112.498C243.15 107.522 244.251 104.719 250.303 97.836C250.075 103.986 248.679 109.066 244.181 112.498ZM137.465 108.653C134.364 108.727 131.28 109.542 127.637 110.12C131.018 114.717 136.099 115.379 140.55 118.854C135.519 118.653 132.327 116.274 128.933 114.473C126.276 113.063 123.533 111.796 120.97 110.238C118.398 108.675 115.891 106.955 113.587 105.028C112.877 104.432 112.436 102.736 112.769 101.898C113.072 101.131 114.571 100.448 115.566 100.413C119.271 100.285 122.984 100.436 126.674 100.482C127.583 95.6477 127.585 95.6278 132.487 96.1846C136.299 96.6188 140.103 97.1129 144.072 97.6003C141.668 98.7623 141.667 98.7689 137.135 98.2418C134.671 97.9549 132.208 97.6389 129.026 97.2483C130.701 101.893 134.336 102.769 137.199 104.454C140.226 106.238 143.394 107.778 147.093 109.739C143.392 109.286 140.42 108.581 137.465 108.653ZM186.2 200.633C183.138 197.066 185.394 193.624 185.915 189.799C180.745 192.749 178.117 198.487 171.625 199.631C171.389 197.339 171.177 195.286 170.939 192.989C166.053 195.364 162.06 199.93 155.491 199.157C155.082 194.344 156.785 190.638 159.976 187.386C158.98 190.534 157.981 193.682 156.958 196.909C161.492 197.126 163.827 195.825 170.351 190.719C174.569 187.415 174.631 182.067 177.453 178.344C173.85 171.645 174.641 165.571 180.268 158.539C179.207 164.244 175.82 168.882 177.451 174.618C181.258 174.631 182.966 171.559 185.331 169.69C187.84 167.707 190.177 165.508 193.193 163.894C192.624 164.782 192.208 165.827 191.462 166.526C188.022 169.759 184.493 172.898 180.992 176.064C180.371 176.628 179.613 177.073 179.1 177.717C176.557 180.911 173.189 192.164 173.374 197.641C180.248 191.605 187.573 186.903 191.076 178.397C190.067 185.259 186.151 191.307 186.197 199.02C190.456 197.318 192.336 193.436 195.778 191.665C193.421 195.506 190.711 198.926 186.2 200.633ZM262.068 232.819C261.244 234.175 259.862 234.442 258.739 232.989C258.133 232.203 257.758 231.242 256.824 229.528C256.148 231.695 255.826 232.978 255.349 234.201C254.611 236.083 254.273 238.616 252.868 239.644C249.434 242.154 248.619 245.872 247.096 249.331C246.484 250.719 245.835 252.167 244.861 253.295C244.081 254.201 242.8 255.13 241.715 255.161C240.992 255.182 239.798 253.752 239.55 252.782C238.306 247.916 237.999 242.953 238.24 237.98C238.61 237.933 238.981 237.887 239.352 237.84C240.081 242.853 240.808 247.863 241.646 253.632C245.07 250.163 246.226 246.452 247.865 243.047C248.176 242.401 248.125 241.295 247.773 240.658C245.207 235.991 245.999 230.841 245.631 225.803C248.64 229.803 247.092 235.324 250.129 239.994C253.342 235.285 254.195 230.3 255.58 225.516C257.079 220.331 253.157 215.865 253.603 209.963C257.951 217.104 258.368 224.601 259.84 231.764C260.193 231.784 260.546 231.805 260.9 231.826C262.115 228.62 263.329 225.411 264.545 222.204C265.027 226.088 264.019 229.608 262.068 232.819ZM336.07 210.672C333.493 208.25 331.008 205.715 328.679 203.058C327.256 201.437 326.195 199.499 325.061 197.837C321.959 199.123 322.624 201.033 322.856 202.807C323.47 207.492 324.304 212.164 324.62 216.87C324.843 220.158 324.359 223.495 324.124 228.085C321.754 226.567 320.178 225.993 319.241 224.878C315.255 220.139 312.001 214.969 311.089 208.639C314.841 213.719 316.886 219.897 322.083 225.157C322.331 223.133 322.679 221.897 322.597 220.689C322.194 214.621 321.777 208.552 321.125 202.509C320.978 201.151 319.989 199.818 319.187 198.607C317.084 195.432 314.868 192.331 312.696 189.202C313.04 188.931 313.387 188.658 313.731 188.388C315.971 191.237 318.211 194.084 320.954 197.574C322.973 191.142 321.575 185.493 321.587 179.738C323.637 182.602 324.379 183.835 324.089 188.874C323.842 193.181 325.331 196.37 328.081 199.323C331.181 202.651 334.218 206.035 337.332 209.348C337.752 209.796 338.468 209.962 339.807 210.647C339.691 203.743 337.253 197.829 336.786 191.595C340.208 197.877 342.525 204.416 341.952 211.48C339.423 213.041 337.582 212.097 336.07 210.672ZM414.042 177.762C412.554 177.021 411.225 175.954 409.504 174.822C408.15 179.34 407.311 180.03 403.849 178.677C396.503 175.809 390.156 171.415 385.048 165.342C384.816 165.066 384.958 164.475 384.877 163.339C391.877 168.914 398.032 174.855 407.26 177.677C406.546 175.36 406.274 174.06 405.753 172.87C404.943 171.014 403.856 169.277 403.074 167.411C400.321 160.837 396.338 155.42 389.663 152.315C388.515 151.782 387.595 150.761 386.753 149.638C393.767 151.062 398.73 157.25 406.92 158.379C404.866 150.636 400.435 144.94 397.317 138.618C402.402 142.325 405.007 147.746 407.715 153.11C408.603 154.868 409.799 156.467 410.746 158.194C413.093 162.468 415.456 166.736 417.634 171.097C418.21 172.247 418.339 173.724 418.321 175.046C418.278 178.07 416.684 179.079 414.042 177.762Z" fill="#1F1F1F" fill-opacity="0.5"/>
<path d="M183.247 414.82C171.944 421.267 159.738 424.311 146.644 421.634C139.297 420.13 132.922 416.807 128.446 410.578C121.733 401.238 123.636 392.925 133.649 387.373C134.83 386.719 136.097 386.214 137.275 385.553C140.371 383.818 143.723 382.383 146.444 380.176C149.413 377.769 152.174 374.892 154.326 371.742C157.011 367.812 156.745 364.089 154.543 361.92C152.14 359.553 148.369 359.526 144.188 361.846C144.041 361.927 143.897 362.018 143.756 362.113C135.479 367.754 127.544 373.845 121.204 381.665C111.931 393.1 111.285 405.734 117.271 418.754C118.771 422.017 121.345 425.049 124.081 427.433C133.237 435.403 144.34 438.217 156.165 437.541C174.518 436.495 189.83 428.24 203.295 416.198C206.004 413.774 208.439 411.042 211.242 408.204C207.789 405.696 204.815 403.539 202.318 401.723C195.749 406.286 189.798 411.082 183.247 414.82Z" fill="#1F1F1F" fill-opacity="0.5"/>
<path d="M365.465 293.793C363.949 291.711 362.032 289.892 359.138 290.321C356.112 290.767 354.301 292.916 353.638 295.643C352.927 298.567 352.674 301.635 352.544 304.654C352.421 307.511 352.807 310.385 352.813 313.25C352.833 322.227 349.451 329.631 342.529 335.437C341.206 336.547 339.208 337.299 339.482 339.709C340.012 344.359 340.433 349.021 340.995 354.662C359.089 342.952 368.35 327.105 368.866 306.282C368.98 301.851 368.16 297.491 365.465 293.793Z" fill="#1F1F1F" fill-opacity="0.5"/>
<path d="M315.861 362.825C318.177 356.107 318.483 352.803 317.314 346.243C304.633 346.544 293.452 342.115 283.761 333.281C281.049 338.419 278.563 343.127 275.901 348.171C286.949 359.757 300.116 364.79 315.861 362.825Z" fill="#1F1F1F" fill-opacity="0.5"/>
<path d="M401.205 159.871C404.889 166.15 407.309 173.712 416.41 176.17C415.87 169.419 412 164.543 409.322 159.613C406.43 159.704 404.011 159.781 401.205 159.871Z" fill="#1F1F1F" fill-opacity="0.5"/>
<path d="M126.871 102.017C123.668 102.056 120.462 101.865 117.258 101.877C116.239 101.881 115.223 102.215 113.622 102.505C116.78 106.629 120.519 108.94 124.71 109.071C128.239 109.183 131.824 107.533 135.794 106.561C132.657 104.914 130.619 101.971 126.871 102.017Z" fill="#1F1F1F" fill-opacity="0.5"/>
</svg>
